<?xml version="1.0" encoding="UTF-8"?>
<svg version="1.1" viewBox="0 0 2000 2000" width="1280" height="1280" xmlns="http://www.w3.org/2000/svg">
<path transform="translate(433,792)" d="m0 0h2l8 15 9 11 8 8 9 5 9 3 7 1h15l32-1h28l31 3 24 5 19 7 22 10 11 8 10 9 10 11 9 14 7 15 6 21 3 18v33l-3 19-4 16-6 16-6 12-11 14-11 11-11 8-14 7-21 8-16 4-25 4-52 5-18 1h-21l-38-2-22-3-28-6-24-8-16-8-15-10-10-9-10-10-10-14-8-16-6-20-3-18-1-12v-16l3-28 4-17 7-21 9-14 12-13 11-8 16-8 23-11 11-7 12-11 7-8 11-16z" fill="#D33550"/>
<path transform="translate(1235,917)" d="m0 0h22l14 3 13 5 13 8 12 10 11 14 8 16 4 13 1 9v15l-2 13-4 12-6 12-10 13-8 8-10 7-16 8-13 4-9 1h-20l-14-3-13-5-15-9-12-11-10-13-8-16-4-16-1-7v-10l3-17 5-13 8-14 11-13 13-10 17-9 14-4zm8 49-10 2-9 5-8 7-6 12-2 8 1 11 4 10 9 10 8 5 7 3 9 1 14-3 10-6 7-8 4-8 2-9v-7l-4-13-6-8-8-7-10-4z" fill="#6F21C0"/>
<path transform="translate(935,917)" d="m0 0h17l16 3 13 5 14 9 12 11 7 8 6 10 5 11 4 14 1 7v14l-3 17-6 15-7 11-10 12-14 11-16 8-14 4-9 1h-19l-14-3-15-6-11-7-10-8-10-11-9-15-5-14-2-8-1-15 2-16 5-15 8-14 9-11 8-8 13-9 13-6 14-4zm2 49-10 3-9 6-7 8-4 8-2 8v7l3 11 6 9 5 5 9 6 6 2 10 1 10-2 12-6 7-7 6-12 1-5v-10l-3-10-6-9-9-8-10-4-5-1z" fill="#B38A53"/>
<path transform="translate(1350,921)" d="m0 0h160l-2 5-48 72-7 10-22 33h72l1 1v41l-2 1h-165l1-4 7-10 26-39 19-28 22-33 3-5-66-1v-42z" fill="#6D1FC1"/>
<path transform="translate(1057,861)" d="m0 0h56l1 1v40l-1 19h34l1 1v41l-1 1h-33l1 62 3 8 2 2 4 1h7l9-3 4 11 9 29v5l-11 5-12 3-8 1h-20l-13-3-11-6-9-9-8-16-4-19-1-71h-22l-1-4v-23l1-16h22z" fill="#6E21C0"/>
<path transform="translate(755,861)" d="m0 0h55l1 1v41l-1 18h34l1 7-1 35-1 1h-32v50l1 13 3 7 5 3h8l9-3 3 8 11 36-10 5-15 4-8 1h-19l-12-3-10-5-10-9-7-12-4-14-1-6-1-36v-40l-5 1h-17l-1-2v-39l1-2 22 1v-59z" fill="#B38A53"/>
<path transform="translate(486,1028)" d="m0 0h132l1 1v11l-3 10-5 9-9 10-8 7-12 7-12 4-8 1h-23l-14-3-16-8-11-9-8-10-5-11-2-10v-7z" fill="#FEFEFE"/>
<path transform="translate(448,899)" d="m0 0h15l9 2 9 6 8 9 4 9 1 5v15l-4 11-7 10-11 7-5 2-6 1h-12l-9-3-10-6-6-7-5-10-2-7v-13l3-10 8-11 10-7z" fill="#FEFEFE"/>
<path transform="translate(615,934)" d="m0 0h9l9 3 6 7 2 7v8l-4 10-6 5-6 2h-9l-8-3-7-8-1-3v-14l4-8 8-5z" fill="#FEFEFE"/>
<path transform="translate(476,903)" d="m0 0 5 2 8 8 5 10 2 7v15l-4 11-8 11-5 4-7 4-7 2h-16v-1l18-2 12-6 5-5 6-9 3-9v-15l-3-10-6-9-8-7z" fill="#B38A53"/>
<path transform="translate(1339,1079)" d="m0 0 2 4h161v1h-165l1-4z" fill="#B38B54"/>
<path transform="translate(1350,921)" d="m0 0h33v1l-32 1 1 40h37v1h-40v-42z" fill="#B68F5A"/>
<path transform="translate(1109,861)" d="m0 0 5 1v40l-1 12h-1l-1-51h-2z" fill="#D3BC9D"/>
<path transform="translate(433,792)" d="m0 0h2l2 6-3 1v-2l-4-1z" fill="#C18665"/>
</svg>
